<svg xmlns="http://www.w3.org/2000/svg" xml:space="preserve" width="800" height="800" viewBox="0 0 462.314 462.314"><g style="fill:#f4b200;fill-opacity:1;stroke:none;stroke-width:.99968;stroke-dasharray:none;stroke-opacity:1"><path d="M395.356 297.27c-17.178 37.444-54.92 146.58-136.007 184.373-31.623 14.739-20.9-50.104-48.925-29.519-6.389 4.694-122.742-204.542-127.437-210.934-3.71-123.684 35.299-217.884 172.926-224.599 105.51 0 173.31 95.287 173.31 200.797-10.045 22.915.277 51.64-33.867 79.883" style="fill:#fca;fill-opacity:1;stroke:none;stroke-width:.99968;stroke-dasharray:none;stroke-opacity:1" transform="matrix(.90296 0 0 .90296 -12.707 3.243)"/><path d="M256.86 311.738c-66.502 0-120.605-54.103-120.605-120.605S190.358 70.53 256.86 70.53s120.605 54.103 120.605 120.605-54.103 120.604-120.605 120.604m0-212.494c-50.668 0-91.89 41.221-91.89 91.89 0 50.667 41.222 91.888 91.89 91.888s91.889-41.22 91.889-91.889-41.221-91.889-91.89-91.889" style="fill:red;fill-opacity:1;stroke:none;stroke-width:.99968;stroke-dasharray:none;stroke-opacity:1" transform="matrix(.90296 0 0 .90296 -12.707 3.243)"/><path d="M256.86 511.141a14.32 14.32 0 0 1-9.716-3.788c-1.846-1.697-45.72-42.229-90.24-101.212C96.26 325.797 65.51 253.242 65.51 190.491c0-29.983 6.742-58.695 20.04-85.342 3.54-7.096 12.164-9.976 19.258-6.435 7.096 3.541 9.977 12.164 6.435 19.258-11.294 22.63-17.02 47.027-17.02 72.52 0 116.775 126.28 250.32 162.663 286.363 11.025-10.859 30.265-30.583 51.606-55.945 5.107-6.068 14.164-6.846 20.23-1.74 6.068 5.106 6.847 14.164 1.74 20.23-34.332 40.797-62.723 66.884-63.915 67.975a14.3 14.3 0 0 1-9.687 3.766" style="fill:#ff2a2a;fill-opacity:1;stroke:none;stroke-width:.99968;stroke-dasharray:none;stroke-opacity:1" transform="matrix(.90296 0 0 .90296 -12.707 3.243)"/><path d="M367.057 381.76c-2.76 0-5.55-.795-8.01-2.453-6.576-4.43-8.316-13.354-3.884-19.93 42.687-63.348 66.049-116.734 66.049-165.45 0-89.677-74.675-166.07-164.352-166.07-34.89 0-68.142 10.88-96.166 31.465-6.39 4.694-15.376 3.32-20.071-3.073-4.695-6.39-3.32-15.377 3.073-20.07C176.682 11.948 215.814-.86 256.86-.86c105.51 0 191.348 85.84 191.348 191.35 0 54.535-23.294 116.756-69.233 184.932-2.771 4.115-7.304 6.336-11.918 6.336m138.856-106.485 34.923-10.021" style="fill:red;fill-opacity:1;stroke:none;stroke-width:.99968;stroke-dasharray:none;stroke-opacity:1" transform="matrix(.90296 0 0 .90296 -12.707 3.243)"/><path d="m198.288 176.884 115.701.607" style="fill:red;fill-opacity:1;stroke:none;stroke-width:.99968;stroke-linecap:round;stroke-linejoin:bevel;stroke-miterlimit:3.3;stroke-dasharray:none;stroke-opacity:1" transform="matrix(.90296 0 0 .90296 -12.707 3.243)"/></g><g style="fill:red"><path d="M495.302 108.533c-9.22 0-16.695 7.475-16.695 16.695v8.607c-21.429-14.398-45.853-26.576-72.347-36.221V75.348c0-9.22-7.475-16.695-16.695-16.695s-16.695 7.475-16.695 16.695V87.09c-31.701-8.516-65.544-13.623-100.172-14.872V55.209c0-9.22-7.475-16.695-16.695-16.695s-16.695 7.475-16.695 16.695v17.009c-34.628 1.249-68.471 6.357-100.172 14.872V75.348c0-9.22-7.475-16.695-16.695-16.695s-16.695 7.475-16.695 16.695v22.266c-26.493 9.645-50.918 21.823-72.347 36.221v-8.607c0-9.22-7.475-16.695-16.695-16.695S.009 116.008.009 125.228v189.109c0 6.428 3.69 12.284 9.489 15.059 33.846 16.198 74.273 13.323 105.509-7.501 24.8-16.533 56.852-16.531 81.651 0 36.049 24.032 82.637 24.039 118.694 0 24.802-16.533 56.852-16.532 81.651 0 31.235 20.824 71.664 23.7 105.51 7.501a16.7 16.7 0 0 0 9.489-15.059V125.228c-.004-9.22-7.479-16.695-16.7-16.695m-222.605-2.916c34.942 1.343 68.876 6.893 100.172 16.073v35.544c-31.018-10.469-65.012-16.684-100.172-18.184ZM139.134 121.69c31.295-9.18 65.23-14.73 100.172-16.073v33.434c-35.161 1.499-69.155 7.714-100.172 18.184zM33.396 175.401c20.286-16.811 44.863-31.01 72.347-42.137v37.453c-9.277 4.412-18.178 9.244-26.621 14.499-18.265 11.367-33.573 24.153-45.725 37.982zm263.43 118.712c-24.798 16.534-56.849 16.533-81.651 0-18.025-12.017-38.687-18.025-59.347-18.025-.292 0-.584.013-.876.016 24.767-25.302 64.242-37.245 101.048-37.245 37.082 0 76.436 12.1 101.049 37.246-20.951-.173-41.941 5.822-60.223 18.008m118.695 0a108 108 0 0 0-12.536-7.178c-13.876-40.749-70.587-81.468-146.984-81.468-76.396 0-133.107 40.719-146.983 81.468-4.291 2.095 202.523-99.095 198.469-96.393-18.62 12.413-101.981-21.778-123.034-28.41 1.119-33.008-127.508 76.216-87.688 51.433 42.363-26.365 106.609-4.153 165.441-4.153s74.464 19.94 116.828 46.305c39.818 24.783.146-31.451 1.266 1.558-21.054 6.629 53.841 49.252 35.221 36.838m63.086-70.916c-12.152-13.828-27.462-26.614-45.725-37.981-8.443-5.256-17.344-10.087-26.621-14.499v-37.453c27.484 11.127 52.061 25.325 72.347 42.137z" style="fill:red" transform="matrix(.27726 0 0 .24656 149.237 106.139)"/><path d="M510.362 373.913c-3.979-8.318-13.946-11.835-22.267-7.854-23.277 11.139-51.087 9.16-72.575-5.164-36.052-24.035-82.642-24.035-118.694 0-24.798 16.534-56.849 16.533-81.65 0-36.052-24.035-82.642-24.035-118.694 0-21.488 14.324-49.298 16.302-72.574 5.164-8.32-3.98-18.286-.464-22.267 7.854s-.464 18.286 7.854 22.266c33.846 16.198 74.273 13.323 105.509-7.501 24.802-16.533 56.852-16.532 81.651 0 36.049 24.032 82.637 24.039 118.694 0 24.8-16.533 56.85-16.533 81.651 0 31.235 20.824 71.664 23.701 105.51 7.501 8.316-3.98 11.831-13.948 7.852-22.266" style="fill:red" transform="matrix(.27726 0 0 .24656 149.237 106.139)"/><path d="M510.362 440.695c-3.979-8.318-13.946-11.836-22.267-7.854-23.277 11.138-51.087 9.16-72.575-5.164-36.052-24.035-82.642-24.035-118.694 0-24.798 16.534-56.849 16.533-81.65 0-36.052-24.035-82.642-24.035-118.694 0-21.49 14.323-49.3 16.302-72.575 5.164-8.32-3.98-18.286-.463-22.267 7.854s-.464 18.286 7.854 22.266c33.846 16.197 74.273 13.323 105.509-7.501 24.802-16.533 56.852-16.533 81.651 0 36.049 24.032 82.637 24.039 118.694 0 24.8-16.533 56.85-16.533 81.651 0 31.235 20.825 71.664 23.7 105.51 7.501 8.317-3.98 11.832-13.949 7.853-22.266" style="fill:red" transform="matrix(.27726 0 0 .24656 149.237 106.139)"/></g><g style="fill:#f60"><path d="M495.302 108.533c-9.22 0-16.695 7.475-16.695 16.695v8.607c-21.429-14.398-45.853-26.576-72.347-36.221V75.348c0-9.22-7.475-16.695-16.695-16.695s-16.695 7.475-16.695 16.695V87.09c-31.701-8.516-65.544-13.623-100.172-14.872V55.209c0-9.22-7.475-16.695-16.695-16.695s-16.695 7.475-16.695 16.695v17.009c-34.628 1.249-68.471 6.357-100.172 14.872V75.348c0-9.22-7.475-16.695-16.695-16.695s-16.695 7.475-16.695 16.695v22.266c-26.493 9.645-50.918 21.823-72.347 36.221v-8.607c0-9.22-7.475-16.695-16.695-16.695S.009 116.008.009 125.228v189.109c0 6.428 3.69 12.284 9.489 15.059 33.846 16.198 74.273 13.323 105.509-7.501 24.8-16.533 56.852-16.531 81.651 0 36.049 24.032 82.637 24.039 118.694 0 24.802-16.533 56.852-16.532 81.651 0 31.235 20.824 71.664 23.7 105.51 7.501a16.7 16.7 0 0 0 9.489-15.059V125.228c-.004-9.22-7.479-16.695-16.7-16.695m-222.605-2.916c34.942 1.343 68.876 6.893 100.172 16.073v35.544c-31.018-10.469-65.012-16.684-100.172-18.184ZM139.134 121.69c31.295-9.18 65.23-14.73 100.172-16.073v33.434c-35.161 1.499-69.155 7.714-100.172 18.184zM33.396 175.401c20.286-16.811 44.863-31.01 72.347-42.137v37.453c-9.277 4.412-18.178 9.244-26.621 14.499-18.265 11.367-33.573 24.153-45.725 37.982zm263.43 118.712c-24.798 16.534-56.849 16.533-81.651 0-18.025-12.017-38.687-18.025-59.347-18.025-.292 0-.584.013-.876.016 24.767-25.302 64.242-37.245 101.048-37.245 37.082 0 76.436 12.1 101.049 37.246-20.951-.173-41.941 5.822-60.223 18.008m118.695 0a108 108 0 0 0-12.536-7.178c-13.876-40.749-70.587-81.468-146.984-81.468-76.396 0-133.107 40.719-146.983 81.468-4.291 2.095 202.523-99.095 198.469-96.393-18.62 12.413-101.981-21.778-123.034-28.41 1.119-33.008-127.508 76.216-87.688 51.433 42.363-26.365 106.609-4.153 165.441-4.153s74.464 19.94 116.828 46.305c39.818 24.783.146-31.451 1.266 1.558-21.054 6.629 53.841 49.252 35.221 36.838m63.086-70.916c-12.152-13.828-27.462-26.614-45.725-37.981-8.443-5.256-17.344-10.087-26.621-14.499v-37.453c27.484 11.127 52.061 25.325 72.347 42.137z" style="fill:#f60" transform="matrix(.26832 0 0 .22077 156.092 111.868)"/><path d="M510.362 373.913c-3.979-8.318-13.946-11.835-22.267-7.854-23.277 11.139-51.087 9.16-72.575-5.164-36.052-24.035-82.642-24.035-118.694 0-24.798 16.534-56.849 16.533-81.65 0-36.052-24.035-82.642-24.035-118.694 0-21.488 14.324-49.298 16.302-72.574 5.164-8.32-3.98-18.286-.464-22.267 7.854s-.464 18.286 7.854 22.266c33.846 16.198 74.273 13.323 105.509-7.501 24.802-16.533 56.852-16.532 81.651 0 36.049 24.032 82.637 24.039 118.694 0 24.8-16.533 56.85-16.533 81.651 0 31.235 20.824 71.664 23.701 105.51 7.501 8.316-3.98 11.831-13.948 7.852-22.266" style="fill:#f60" transform="matrix(.26832 0 0 .22077 156.092 111.868)"/><path d="M510.362 440.695c-3.979-8.318-13.946-11.836-22.267-7.854-23.277 11.138-51.087 9.16-72.575-5.164-36.052-24.035-82.642-24.035-118.694 0-24.798 16.534-56.849 16.533-81.65 0-36.052-24.035-82.642-24.035-118.694 0-21.49 14.323-49.3 16.302-72.575 5.164-8.32-3.98-18.286-.463-22.267 7.854s-.464 18.286 7.854 22.266c33.846 16.197 74.273 13.323 105.509-7.501 24.802-16.533 56.852-16.533 81.651 0 36.049 24.032 82.637 24.039 118.694 0 24.8-16.533 56.85-16.533 81.651 0 31.235 20.825 71.664 23.7 105.51 7.501 8.317-3.98 11.832-13.949 7.853-22.266" style="fill:#f60" transform="matrix(.26832 0 0 .22077 156.092 111.868)"/></g></svg>