<svg xmlns="http://www.w3.org/2000/svg" xmlns:xlink="http://www.w3.org/1999/xlink" xml:space="preserve" id="Capa_1" width="800" height="800" version="1.1" viewBox="0 0 462.314 462.314"><defs id="defs13"><linearGradient id="linearGradient1144"><stop id="stop1140" offset="0" style="stop-color:#000;stop-opacity:1"/><stop id="stop1142" offset="1" style="stop-color:#000;stop-opacity:0"/></linearGradient><linearGradient xlink:href="#linearGradient1144" id="linearGradient1146" x1="64.651" x2="447.349" y1="256" y2="256" gradientUnits="userSpaceOnUse"/><style id="style556">.cls-1{fill:none;stroke:#000;stroke-linejoin:round;stroke-width:2px}</style></defs><g id="g482" style="fill:#f4b200;stroke:none;stroke-opacity:1;fill-opacity:1;stroke-width:.99968;stroke-dasharray:none" transform="matrix(.90296 0 0 .90296 5.94 2.695)"><path id="path478-0" d="M395.356 297.27c-17.178 37.444-54.92 146.58-136.007 184.373-31.623 14.739-20.9-50.104-48.925-29.519-6.389 4.694-122.742-204.542-127.437-210.934-3.71-123.684 35.299-217.884 172.926-224.599 105.51 0 173.31 95.287 173.31 200.797-10.045 22.915.277 51.64-33.867 79.883" style="fill:#fca;fill-opacity:1;stroke:none;stroke-width:.99968;stroke-dasharray:none;stroke-opacity:1"/><path id="path474" d="M256.86 311.738c-66.502 0-120.605-54.103-120.605-120.605S190.358 70.53 256.86 70.53s120.605 54.103 120.605 120.605-54.103 120.604-120.605 120.604m0-212.494c-50.668 0-91.89 41.221-91.89 91.89 0 50.667 41.222 91.888 91.89 91.888s91.889-41.22 91.889-91.889-41.221-91.889-91.89-91.889" style="fill:red;fill-opacity:1;stroke:none;stroke-width:.99968;stroke-dasharray:none;stroke-opacity:1"/><path id="path476" d="M256.86 511.141a14.32 14.32 0 0 1-9.716-3.788c-1.846-1.697-45.72-42.229-90.24-101.212C96.26 325.797 65.51 253.242 65.51 190.491c0-29.983 6.742-58.695 20.04-85.342 3.54-7.096 12.164-9.976 19.258-6.435 7.096 3.541 9.977 12.164 6.435 19.258-11.294 22.63-17.02 47.027-17.02 72.52 0 116.775 126.28 250.32 162.663 286.363 11.025-10.859 30.265-30.583 51.606-55.945 5.107-6.068 14.164-6.846 20.23-1.74 6.068 5.106 6.847 14.164 1.74 20.23-34.332 40.797-62.723 66.884-63.915 67.975a14.3 14.3 0 0 1-9.687 3.766" style="fill:#ff2a2a;fill-opacity:1;stroke:none;stroke-width:.99968;stroke-dasharray:none;stroke-opacity:1"/><path id="path478" d="M367.057 381.76c-2.76 0-5.55-.795-8.01-2.453-6.576-4.43-8.316-13.354-3.884-19.93 42.687-63.348 66.049-116.734 66.049-165.45 0-89.677-74.675-166.07-164.352-166.07-34.89 0-68.142 10.88-96.166 31.465-6.39 4.694-15.376 3.32-20.071-3.073-4.695-6.39-3.32-15.377 3.073-20.07C176.682 11.948 215.814-.86 256.86-.86c105.51 0 191.348 85.84 191.348 191.35 0 54.535-23.294 116.756-69.233 184.932-2.771 4.115-7.304 6.336-11.918 6.336m138.856-106.485 34.923-10.021" style="fill:red;fill-opacity:1;stroke:none;stroke-width:.99968;stroke-dasharray:none;stroke-opacity:1"/><path id="path3092" d="m198.288 176.884 115.701.607" style="fill:red;fill-opacity:1;stroke:none;stroke-width:.99968;stroke-linecap:round;stroke-linejoin:bevel;stroke-miterlimit:3.3;stroke-dasharray:none;stroke-opacity:1"/></g><g id="Layer_20" data-name="Layer 20" style="fill:#ff7f2a;stroke:#fd0000;stroke-opacity:1" transform="matrix(3.45542 0 0 4.06737 125.935 80.653)"><path id="rect608" d="M18.508 31.461h27.444v3.925H18.508z" class="cls-1" style="fill:red;fill-opacity:1;stroke:#fd0000;stroke-opacity:1"/><path id="polyline610" d="M29 26v-6h6v6" class="cls-1" style="fill:red;fill-opacity:1;stroke:red;stroke-opacity:1" transform="translate(.537 5.686)"/><path id="path612" d="M32.538 25.685V12.686a5.013 5 0 0 1 5.013-5 5.013 5 0 0 1 5.013 5v6" class="cls-1" style="fill:#ff7f2a;fill-opacity:0;stroke:#fd0000;stroke-opacity:1"/><path id="path614" d="M32.537 25.686v-13a5 5 0 0 0-5-5 5 5 0 0 0-5 5v4" class="cls-1" style="fill:#ff7f2a;fill-opacity:0;stroke:#fd0000;stroke-opacity:1"/><path id="line616" d="M22.537 18.686v2" class="cls-1" style="fill:#ff7f2a;stroke:#fd0000;stroke-opacity:1"/><path id="line618" d="M42.537 20.686v2" class="cls-1" style="fill:#ff7f2a;stroke:#fd0000;stroke-opacity:1"/><path id="line650" d="M22.537 22.686v4" class="cls-1" style="fill:#ff7f2a;stroke:#fd0000;stroke-opacity:1"/><rect id="rect4110" width=".816" height="1.358" x="42.089" y="20.965" ry=".07" style="fill:red;fill-opacity:1;stroke:red;stroke-width:1.66217;stroke-linecap:round;stroke-linejoin:bevel;stroke-miterlimit:3.3;stroke-opacity:1"/><rect id="rect4110-5" width=".576" height="1.448" x="42.28" y="17.224" ry=".075" style="fill:red;fill-opacity:1;stroke:red;stroke-width:1.44281;stroke-linecap:round;stroke-linejoin:bevel;stroke-miterlimit:3.3;stroke-opacity:1"/><rect id="rect4110-4" width=".816" height="1.358" x="22.136" y="18.817" ry=".07" style="fill:red;fill-opacity:1;stroke:red;stroke-width:1.66217;stroke-linecap:round;stroke-linejoin:bevel;stroke-miterlimit:3.3;stroke-opacity:1"/><rect id="rect4110-7" width=".397" height="3.826" x="22.319" y="22.91" ry=".199" style="fill:red;fill-opacity:1;stroke:red;stroke-width:1.94674;stroke-linecap:round;stroke-linejoin:bevel;stroke-miterlimit:3.3;stroke-opacity:1"/><rect id="rect4110-3" width=".574" height="1.514" x="22.249" y="15.011" ry=".079" style="fill:red;fill-opacity:1;stroke:red;stroke-width:1.4719;stroke-linecap:round;stroke-linejoin:bevel;stroke-miterlimit:3.3;stroke-opacity:1"/></g><g id="Layer_20-7" data-name="Layer 20" style="fill:#ff7f2a;stroke:#fd7f28;stroke-opacity:1" transform="matrix(3.3411 0 0 4.07177 132.797 86.981)"><path id="rect608-1" d="M18.508 31.461h27.444v3.925H18.508z" class="cls-1" style="fill:#ff7f2a;fill-opacity:1;stroke:#fd7f28;stroke-width:2px;stroke-linejoin:round;stroke-opacity:1"/><path id="polyline610-9" d="M29 26v-6h6v6" class="cls-1" style="fill:#ff7f2a;fill-opacity:1;stroke:#fd7f28;stroke-width:2px;stroke-linejoin:round;stroke-opacity:1" transform="translate(.537 5.686)"/><path id="path612-8" d="M32.538 25.685V12.686a5.013 5 0 0 1 5.013-5 5.013 5 0 0 1 5.013 5v6" class="cls-1" style="fill:#ff7f2a;fill-opacity:0;stroke:#fd7f28;stroke-width:2px;stroke-linejoin:round;stroke-opacity:1"/><path id="path614-5" d="M32.537 25.686v-13a5 5 0 0 0-5-5 5 5 0 0 0-5 5v4" class="cls-1" style="fill:#ff7f2a;fill-opacity:0;stroke:#fd7f28;stroke-width:2px;stroke-linejoin:round;stroke-opacity:1"/><path id="line616-8" d="M22.537 18.686v2" class="cls-1" style="fill:#ff7f2a;stroke:#fd7f28;stroke-width:2px;stroke-linejoin:round;stroke-opacity:1"/><path id="line618-9" d="M42.537 20.686v2" class="cls-1" style="fill:#ff7f2a;stroke:#fd7f28;stroke-width:2px;stroke-linejoin:round;stroke-opacity:1"/><path id="line650-1" d="M22.537 22.686v4" class="cls-1" style="fill:#ff7f2a;stroke:#fd7f28;stroke-width:2px;stroke-linejoin:round;stroke-opacity:1"/><rect id="rect4110-0" width=".816" height="1.358" x="42.089" y="20.965" ry=".07" style="fill:#ff7f2a;fill-opacity:1;stroke:#fd7f28;stroke-width:1.66217;stroke-linecap:round;stroke-linejoin:bevel;stroke-miterlimit:3.3;stroke-opacity:1"/><rect id="rect4110-5-8" width=".576" height="1.448" x="42.28" y="17.224" ry=".075" style="fill:#ff7f2a;fill-opacity:1;stroke:#fd7f28;stroke-width:1.44281;stroke-linecap:round;stroke-linejoin:bevel;stroke-miterlimit:3.3;stroke-opacity:1"/><rect id="rect4110-4-1" width=".816" height="1.358" x="22.136" y="18.817" ry=".07" style="fill:#ff7f2a;fill-opacity:1;stroke:#fd7f28;stroke-width:1.66217;stroke-linecap:round;stroke-linejoin:bevel;stroke-miterlimit:3.3;stroke-opacity:1"/><rect id="rect4110-7-5" width=".397" height="3.826" x="22.319" y="22.91" ry=".199" style="fill:#ff7f2a;fill-opacity:1;stroke:#fd7f28;stroke-width:1.94674;stroke-linecap:round;stroke-linejoin:bevel;stroke-miterlimit:3.3;stroke-opacity:1"/><rect id="rect4110-3-5" width=".574" height="1.514" x="22.249" y="15.011" ry=".079" style="fill:#ff7f2a;fill-opacity:1;stroke:#fd7f28;stroke-width:1.4719;stroke-linecap:round;stroke-linejoin:bevel;stroke-miterlimit:3.3;stroke-opacity:1"/></g></svg>