<svg xmlns="http://www.w3.org/2000/svg" xml:space="preserve" width="800" height="800" viewBox="0 0 462.314 462.314"><g style="fill:#f4b200;fill-opacity:1;stroke:none;stroke-width:.99968;stroke-dasharray:none;stroke-opacity:1" transform="matrix(.90296 0 0 .90296 .026 2.291)"><path d="M395.356 297.27c-17.178 37.444-54.92 146.58-136.007 184.373-31.623 14.739-20.9-50.104-48.925-29.519-6.389 4.694-122.742-204.542-127.437-210.934-3.71-123.684 35.299-217.884 172.926-224.599 105.51 0 173.31 95.287 173.31 200.797-10.045 22.915.277 51.64-33.867 79.883" style="fill:#fca;fill-opacity:1;stroke:none;stroke-width:.99968;stroke-dasharray:none;stroke-opacity:1"/><path d="M256.86 311.738c-66.502 0-120.605-54.103-120.605-120.605S190.358 70.53 256.86 70.53s120.605 54.103 120.605 120.605-54.103 120.604-120.605 120.604m0-212.494c-50.668 0-91.89 41.221-91.89 91.89 0 50.667 41.222 91.888 91.89 91.888s91.889-41.22 91.889-91.889-41.221-91.889-91.89-91.889" style="fill:red;fill-opacity:1;stroke:none;stroke-width:.99968;stroke-dasharray:none;stroke-opacity:1"/><path d="M256.86 511.141a14.32 14.32 0 0 1-9.716-3.788c-1.846-1.697-45.72-42.229-90.24-101.212C96.26 325.797 65.51 253.242 65.51 190.491c0-29.983 6.742-58.695 20.04-85.342 3.54-7.096 12.164-9.976 19.258-6.435 7.096 3.541 9.977 12.164 6.435 19.258-11.294 22.63-17.02 47.027-17.02 72.52 0 116.775 126.28 250.32 162.663 286.363 11.025-10.859 30.265-30.583 51.606-55.945 5.107-6.068 14.164-6.846 20.23-1.74 6.068 5.106 6.847 14.164 1.74 20.23-34.332 40.797-62.723 66.884-63.915 67.975a14.3 14.3 0 0 1-9.687 3.766" style="fill:#ff2a2a;fill-opacity:1;stroke:none;stroke-width:.99968;stroke-dasharray:none;stroke-opacity:1"/><path d="M367.057 381.76c-2.76 0-5.55-.795-8.01-2.453-6.576-4.43-8.316-13.354-3.884-19.93 42.687-63.348 66.049-116.734 66.049-165.45 0-89.677-74.675-166.07-164.352-166.07-34.89 0-68.142 10.88-96.166 31.465-6.39 4.694-15.376 3.32-20.071-3.073-4.695-6.39-3.32-15.377 3.073-20.07C176.682 11.948 215.814-.86 256.86-.86c105.51 0 191.348 85.84 191.348 191.35 0 54.535-23.294 116.756-69.233 184.932-2.771 4.115-7.304 6.336-11.918 6.336m138.856-106.485 34.923-10.021" style="fill:red;fill-opacity:1;stroke:none;stroke-width:.99968;stroke-dasharray:none;stroke-opacity:1"/><path d="m198.288 176.884 115.701.607" style="fill:red;fill-opacity:1;stroke:none;stroke-width:.99968;stroke-linecap:round;stroke-linejoin:bevel;stroke-miterlimit:3.3;stroke-dasharray:none;stroke-opacity:1"/><rect width="139.388" height="13.138" x="183.581" y="161.49" ry="6.569" style="fill:#fca;fill-opacity:1;stroke:none;stroke-width:1.94868;stroke-linecap:round;stroke-linejoin:bevel;stroke-miterlimit:3.3;stroke-dasharray:none;stroke-opacity:1"/></g><g style="fill:#ff7f2a;stroke:#ff8029;stroke-opacity:1" transform="matrix(.2613 0 0 .20523 157.652 111.537)"><g style="fill:#ff7f2a;stroke:#ff8029;stroke-opacity:1"><g style="fill:#ff7f2a;fill-opacity:1;stroke:#ff8029;stroke-width:12.2297;stroke-dasharray:none;stroke-opacity:1"><path d="M266.78 45.381c-3.567-1.18-15.243-1.134-19.304.118-.25 1.763-.484-7.743-.592 41.514 0 5.888 4.133 5.78 10.021 5.78s11.313.108 11.313-5.78c.24-13.617-1.018-38.455-1.438-41.632z" style="fill:#ff7f2a;fill-opacity:1;stroke:#ff8029;stroke-width:12.2297;stroke-dasharray:none;stroke-opacity:1" transform="matrix(1.05997 0 0 1.26573 -12.561 -32.28)"/><path d="M460.258 450.109c0-5.888-6.361-23.422-12.249-23.422H436.98l-9.963-298.667h20.992c4.864 0 9.088-3.285 10.304-8s-.896-9.664-5.141-12.011l-192-106.667a10.63 10.63 0 0 0-10.347 0l-192 106.667c-4.245 2.389-6.357 7.296-5.141 12.011s5.461 8 10.325 8h20.992L75.04 426.688H64.011c-5.888 0-13.83 14.345-13.83 20.233 136.454 2.364 234.088.044 410.077 3.188zM256.032 22.912l150.827 83.776-21.15-8.928Zm159.616 403.776h1.188l-11.812-298.667h.683zM256.011 192.021c-41.173 0-74.667 33.493-74.667 74.667v160h-43.029l-9.963-298.667h255.317l-9.963 298.667h-43.029v-160c0-41.173-33.493-74.667-74.666-74.667zm53.333 74.667v160H202.677l92.278-6.303c24.267-1.658-5.593-97.975 23.804-97.975s-9.415-85.119-9.415-55.722zM106.357 128.021h.683L91.552 423.433l4.821 3.255Z" style="fill:#ff7f2a;fill-opacity:1;stroke:#ff8029;stroke-width:12.2297;stroke-linejoin:bevel;stroke-dasharray:none;stroke-dashoffset:0;stroke-opacity:1;paint-order:normal" transform="matrix(1.05997 0 0 1.26573 -12.561 -32.28)"/><path d="M494.578 477.255c0-6.167-6.33-24.534-12.188-24.534h-10.975l-9.913-312.857h20.888c4.84 0 9.043-3.441 10.253-8.38s-.891-10.123-5.116-12.582L296.476 7.167a10.12 10.12 0 0 0-10.296 0L95.13 118.902c-4.224 2.503-6.326 7.643-5.116 12.582s5.434 8.38 10.274 8.38h20.888l-9.911 312.858h-10.975c-5.859 0-13.762 15.027-13.762 21.194 135.78 2.476 232.932.046 408.051 3.34zM291.361 29.762l150.082 87.756-21.046-9.352Zm158.828 422.96h1.182l-11.754-312.857h.68zM291.34 206.906c-40.97 0-74.298 35.084-74.298 78.214v167.602h-42.816l-9.914-312.857h254.056l-9.914 312.857h-42.816V285.12c0-43.13-33.328-78.214-74.298-78.214zm53.07 78.214v167.602H238.27l91.822-6.603c24.147-1.736-5.565-102.63 23.686-102.63s-9.368-89.163-9.368-58.369zM142.426 139.865h.68l-15.412 309.447 4.797 3.41z" style="fill:red;fill-opacity:1;stroke:red;stroke-width:12.4859;stroke-linejoin:bevel;stroke-dasharray:none;stroke-dashoffset:0;stroke-opacity:1;paint-order:normal" transform="matrix(1.05997 0 0 1.26573 -12.561 -32.28)"/></g></g><rect width="4.34" height="12.714" x="289.103" y="29.034" ry="1.734" style="fill:#f60;stroke:#ff8000;stroke-width:12.3418;stroke-linecap:round;stroke-linejoin:bevel;stroke-miterlimit:3.3;stroke-opacity:1"/><rect width="1.756" height="56.076" x="290.395" y="65.139" ry="7.647" style="fill:#f60;stroke:#ff8000;stroke-width:16.4901;stroke-linecap:round;stroke-linejoin:bevel;stroke-miterlimit:3.3;stroke-opacity:1"/></g></svg>