<svg xmlns="http://www.w3.org/2000/svg" xmlns:xlink="http://www.w3.org/1999/xlink" xml:space="preserve" id="Capa_1" width="800" height="800" version="1.1" viewBox="0 0 462.314 462.314"><defs id="defs13"><linearGradient id="linearGradient1144"><stop id="stop1140" offset="0" style="stop-color:#000;stop-opacity:1"/><stop id="stop1142" offset="1" style="stop-color:#000;stop-opacity:0"/></linearGradient><linearGradient xlink:href="#linearGradient1144" id="linearGradient1146" x1="64.651" x2="447.349" y1="256" y2="256" gradientUnits="userSpaceOnUse"/><style id="style556">.cls-1{stroke:#000;stroke-linejoin:round;stroke-width:2px;fill:#568c78}.cls-2{fill:#f2d8c2}</style></defs><g id="g352" transform="translate(-1.645)"><g id="g482" style="fill:#f4b200;fill-opacity:1;stroke:none;stroke-width:.99968;stroke-dasharray:none;stroke-opacity:1" transform="matrix(.90296 0 0 .90296 -11.61 2.695)"><path id="path478-0" d="M395.356 297.27c-17.178 37.444-54.92 146.58-136.007 184.373-31.623 14.739-20.9-50.104-48.925-29.519-6.389 4.694-122.742-204.542-127.437-210.934-3.71-123.684 35.299-217.884 172.926-224.599 105.51 0 173.31 95.287 173.31 200.797-10.045 22.915.277 51.64-33.867 79.883" style="fill:#fca;fill-opacity:1;stroke:none;stroke-width:.99968;stroke-dasharray:none;stroke-opacity:1"/><path id="path474" d="M256.86 311.738c-66.502 0-120.605-54.103-120.605-120.605S190.358 70.53 256.86 70.53s120.605 54.103 120.605 120.605-54.103 120.604-120.605 120.604m0-212.494c-50.668 0-91.89 41.221-91.89 91.89 0 50.667 41.222 91.888 91.89 91.888s91.889-41.22 91.889-91.889-41.221-91.889-91.89-91.889" style="fill:red;fill-opacity:1;stroke:none;stroke-width:.99968;stroke-dasharray:none;stroke-opacity:1"/><path id="path476" d="M256.86 511.141a14.32 14.32 0 0 1-9.716-3.788c-1.846-1.697-45.72-42.229-90.24-101.212C96.26 325.797 65.51 253.242 65.51 190.491c0-29.983 6.742-58.695 20.04-85.342 3.54-7.096 12.164-9.976 19.258-6.435 7.096 3.541 9.977 12.164 6.435 19.258-11.294 22.63-17.02 47.027-17.02 72.52 0 116.775 126.28 250.32 162.663 286.363 11.025-10.859 30.265-30.583 51.606-55.945 5.107-6.068 14.164-6.846 20.23-1.74 6.068 5.106 6.847 14.164 1.74 20.23-34.332 40.797-62.723 66.884-63.915 67.975a14.3 14.3 0 0 1-9.687 3.766" style="fill:#ff2a2a;fill-opacity:1;stroke:none;stroke-width:.99968;stroke-dasharray:none;stroke-opacity:1"/><path id="path478" d="M367.057 381.76c-2.76 0-5.55-.795-8.01-2.453-6.576-4.43-8.316-13.354-3.884-19.93 42.687-63.348 66.049-116.734 66.049-165.45 0-89.677-74.675-166.07-164.352-166.07-34.89 0-68.142 10.88-96.166 31.465-6.39 4.694-15.376 3.32-20.071-3.073-4.695-6.39-3.32-15.377 3.073-20.07C176.682 11.948 215.814-.86 256.86-.86c105.51 0 191.348 85.84 191.348 191.35 0 54.535-23.294 116.756-69.233 184.932-2.771 4.115-7.304 6.336-11.918 6.336m138.856-106.485 34.923-10.021" style="fill:red;fill-opacity:1;stroke:none;stroke-width:.99968;stroke-dasharray:none;stroke-opacity:1"/><rect id="rect1027" width="12.884" height="102.213" x="337.962" y="370.65" ry="3.34" style="fill:#faa;stroke:red;stroke-width:8.832;stroke-linecap:round;stroke-linejoin:bevel;stroke-miterlimit:3.3;stroke-dasharray:none;stroke-opacity:1"/></g><circle id="path419" cx="308.758" cy="377.31" r="68.552" style="fill:#fca;stroke:red;stroke-width:7.97492;stroke-linecap:round;stroke-linejoin:bevel;stroke-miterlimit:3.3;stroke-dasharray:none;stroke-opacity:1"/><path id="path1559" d="m303.997 383.522-.016 38.798c.028.332-1.485 6.877-8.435 5.79" style="fill:none;stroke:#ff9b2a;stroke-width:11.5578;stroke-linecap:round;stroke-linejoin:bevel;stroke-miterlimit:3.3;stroke-dasharray:none;stroke-opacity:1"/><path id="path1559-6" d="m303.875 383.425 39.437-.012s7.481-3.42 2.148-7.49" style="fill:none;stroke:#ff9b2a;stroke-width:11.5578;stroke-linecap:round;stroke-linejoin:bevel;stroke-miterlimit:3.3;stroke-dasharray:none;stroke-opacity:1"/><path id="path1559-6-5" d="M304.353 361.577c-.002-8.464-.206-4.726-.034-8.877" style="fill:none;stroke:#ff9b2a;stroke-width:11.5578;stroke-linecap:round;stroke-linejoin:bevel;stroke-miterlimit:3.3;stroke-dasharray:none;stroke-opacity:1"/><path id="path1559-6-1" d="m304.259 352.708 38.7-.012s7.355-1.193 5.026-7.207" style="fill:none;stroke:#ff9b2a;stroke-width:11.5578;stroke-linecap:round;stroke-linejoin:bevel;stroke-miterlimit:3.3;stroke-dasharray:none;stroke-opacity:1"/><rect id="rect1187" width="12.353" height="83.814" x="285.969" y="339.094" ry="2.806" style="fill:red;stroke:red;stroke-width:11.4158;stroke-linecap:round;stroke-linejoin:bevel;stroke-miterlimit:3.3;stroke-dasharray:none;stroke-opacity:1"/><rect id="rect1189" width="57.166" height="8.738" x="285.767" y="338.267" ry="4.096" style="fill:#faa;stroke:red;stroke-width:10.5335;stroke-linecap:round;stroke-linejoin:bevel;stroke-miterlimit:3.3;stroke-dasharray:none;stroke-opacity:1"/><rect id="rect1189-3" width="54.563" height="10.381" x="287.784" y="367.343" ry="4.866" style="fill:#faa;stroke:red;stroke-width:11.217;stroke-linecap:round;stroke-linejoin:bevel;stroke-miterlimit:3.3;stroke-dasharray:none;stroke-opacity:1"/><g id="Layer_5" data-name="Layer 5" style="fill:#ff7f2a" transform="matrix(14.44731 0 0 14.44731 -34.73 534.463)"><ellipse id="circle385" cx="15.24" cy="-26.694" class="cls-1" rx="1.161" ry=".87" style="fill:#ffb380;stroke:red;stroke-opacity:1"/><rect id="rect389" width="5.521" height="3.763" x="13.81" y="-25.496" class="cls-2" rx=".307" style="fill:red;stroke-width:.298288"/><path id="path391" d="M22.29-25.436a.307.29 0 0 0-.273-.043l-2.895.868a.307.29 0 0 0-.394.273v1.464a.307.29 0 0 0 .222.29l3.073.85a.277.26 0 0 0 .086 0 .307.29 0 0 0 .185-.057.307.29 0 0 0 .123-.232v-3.184a.307.29 0 0 0-.126-.229" class="cls-2" style="fill:red;stroke-width:.298288"/><ellipse id="circle385-0" cx="15.72" cy="-27.094" class="cls-1" rx="1.537" ry="1.447" style="fill:#ffb380;stroke:#ff8029;stroke-width:.596575px;stroke-linejoin:round;stroke-opacity:1"/><ellipse id="circle387-6" cx="18.179" cy="-26.804" class="cls-1" rx="1.23" ry="1.158" style="fill:red;stroke:#ff8029;stroke-width:.596575px;stroke-linejoin:round;stroke-opacity:1;fill-opacity:1"/><rect id="rect389-2" width="5.521" height="3.763" x="14.184" y="-25.936" class="cls-2" rx=".307" style="fill:#ff7f2a;stroke-width:.298288"/><path id="path391-1" d="M22.664-25.875a.307.29 0 0 0-.273-.043l-2.896.868a.307.29 0 0 0-.393.272v1.465a.307.29 0 0 0 .22.29l3.075.85a.277.26 0 0 0 .086 0 .307.29 0 0 0 .184-.058.307.29 0 0 0 .123-.231v-3.184a.307.29 0 0 0-.126-.23" class="cls-2" style="fill:#ff7f2a;stroke-width:.298288"/></g></g></svg>