<svg xmlns="http://www.w3.org/2000/svg" xml:space="preserve" width="800" height="800" viewBox="0 0 462.314 462.314"><g style="fill:#f4b200;fill-opacity:1;stroke:none;stroke-width:.99968;stroke-dasharray:none;stroke-opacity:1" transform="matrix(.90296 0 0 .90296 -1.738 2.695)"><path d="M395.356 297.27c-17.178 37.444-54.92 146.58-136.007 184.373-31.623 14.739-20.9-50.104-48.925-29.519-6.389 4.694-122.742-204.542-127.437-210.934-3.71-123.684 35.299-217.884 172.926-224.599 105.51 0 173.31 95.287 173.31 200.797-10.045 22.915.277 51.64-33.867 79.883" style="fill:#fca;fill-opacity:1;stroke:none;stroke-width:.99968;stroke-dasharray:none;stroke-opacity:1"/><path d="M256.86 311.738c-66.502 0-120.605-54.103-120.605-120.605S190.358 70.53 256.86 70.53s120.605 54.103 120.605 120.605-54.103 120.604-120.605 120.604m0-212.494c-50.668 0-91.89 41.221-91.89 91.89 0 50.667 41.222 91.888 91.89 91.888s91.889-41.22 91.889-91.889-41.221-91.889-91.89-91.889" style="fill:red;fill-opacity:1;stroke:none;stroke-width:.99968;stroke-dasharray:none;stroke-opacity:1"/><path d="M256.86 511.141a14.32 14.32 0 0 1-9.716-3.788c-1.846-1.697-45.72-42.229-90.24-101.212C96.26 325.797 65.51 253.242 65.51 190.491c0-29.983 6.742-58.695 20.04-85.342 3.54-7.096 12.164-9.976 19.258-6.435 7.096 3.541 9.977 12.164 6.435 19.258-11.294 22.63-17.02 47.027-17.02 72.52 0 116.775 126.28 250.32 162.663 286.363 11.025-10.859 30.265-30.583 51.606-55.945 5.107-6.068 14.164-6.846 20.23-1.74 6.068 5.106 6.847 14.164 1.74 20.23-34.332 40.797-62.723 66.884-63.915 67.975a14.3 14.3 0 0 1-9.687 3.766" style="fill:#ff2a2a;fill-opacity:1;stroke:none;stroke-width:.99968;stroke-dasharray:none;stroke-opacity:1"/><path d="M367.057 381.76c-2.76 0-5.55-.795-8.01-2.453-6.576-4.43-8.316-13.354-3.884-19.93 42.687-63.348 66.049-116.734 66.049-165.45 0-89.677-74.675-166.07-164.352-166.07-34.89 0-68.142 10.88-96.166 31.465-6.39 4.694-15.376 3.32-20.071-3.073-4.695-6.39-3.32-15.377 3.073-20.07C176.682 11.948 215.814-.86 256.86-.86c105.51 0 191.348 85.84 191.348 191.35 0 54.535-23.294 116.756-69.233 184.932-2.771 4.115-7.304 6.336-11.918 6.336m138.856-106.485 34.923-10.021" style="fill:red;fill-opacity:1;stroke:none;stroke-width:.99968;stroke-dasharray:none;stroke-opacity:1"/><path d="m193.058 181.23 105.297.662" style="fill:red;fill-opacity:1;stroke:none;stroke-width:.995633;stroke-linecap:round;stroke-linejoin:bevel;stroke-miterlimit:3.3;stroke-dasharray:none;stroke-opacity:1"/><rect width="27.359" height="18.255" x="217.657" y="155.489" ry="7.386" style="fill:#f60;stroke:#f60;stroke-width:12.7482;stroke-linecap:round;stroke-linejoin:bevel;stroke-miterlimit:3.3;stroke-opacity:1"/><rect width="30.725" height="19.903" x="197.522" y="182.966" ry="8.052" style="fill:red;fill-opacity:1;stroke:#ff9940;stroke-width:14.1062;stroke-linecap:round;stroke-linejoin:bevel;stroke-miterlimit:3.3;stroke-dasharray:none;stroke-opacity:1"/><rect width="27.359" height="18.255" x="179.5" y="156.191" ry="7.386" style="fill:red;fill-opacity:1;stroke:#ff9940;stroke-width:12.7482;stroke-linecap:round;stroke-linejoin:bevel;stroke-miterlimit:3.3;stroke-dasharray:none;stroke-opacity:1"/><rect width="27.359" height="18.255" x="294.662" y="154.617" ry="7.386" style="fill:#f60;fill-opacity:1;stroke:#f60;stroke-width:12.7482;stroke-linecap:round;stroke-linejoin:bevel;stroke-miterlimit:3.3;stroke-dasharray:none;stroke-opacity:1"/><rect width="27.359" height="18.255" x="238.698" y="186.697" ry="7.386" style="fill:#f60;fill-opacity:1;stroke:#f60;stroke-width:12.7482;stroke-linecap:round;stroke-linejoin:bevel;stroke-miterlimit:3.3;stroke-dasharray:none;stroke-opacity:1"/><rect width="27.359" height="18.255" x="277.392" y="185.761" ry="7.386" style="fill:red;fill-opacity:1;stroke:red;stroke-width:12.7482;stroke-linecap:round;stroke-linejoin:bevel;stroke-miterlimit:3.3;stroke-dasharray:none;stroke-opacity:1"/><rect width="27.359" height="18.255" x="255.905" y="156.272" ry="7.386" style="fill:red;fill-opacity:1;stroke:red;stroke-width:12.7482;stroke-linecap:round;stroke-linejoin:bevel;stroke-miterlimit:3.3;stroke-dasharray:none;stroke-opacity:1"/><rect width="27.359" height="18.255" x="180.462" y="215.25" ry="7.386" style="fill:red;fill-opacity:1;stroke:#ff9940;stroke-width:12.7482;stroke-linecap:round;stroke-linejoin:bevel;stroke-miterlimit:3.3;stroke-dasharray:none;stroke-opacity:1"/><rect width="27.359" height="18.255" x="217.592" y="215.718" ry="7.386" style="fill:#f60;fill-opacity:1;stroke:#ff9940;stroke-width:12.7482;stroke-linecap:round;stroke-linejoin:bevel;stroke-miterlimit:3.3;stroke-dasharray:none;stroke-opacity:1"/><rect width="27.359" height="18.255" x="254.332" y="216.655" ry="7.386" style="fill:red;fill-opacity:1;stroke:#ff9940;stroke-width:12.7482;stroke-linecap:round;stroke-linejoin:bevel;stroke-miterlimit:3.3;stroke-dasharray:none;stroke-opacity:1"/><rect width="27.359" height="18.255" x="290.681" y="216.187" ry="7.386" style="fill:#fca;fill-opacity:1;stroke:#ff9940;stroke-width:12.7482;stroke-linecap:round;stroke-linejoin:bevel;stroke-miterlimit:3.3;stroke-dasharray:none;stroke-opacity:1"/><path d="m202.62 175.21 105.298.663" style="fill:red;fill-opacity:1;stroke:none;stroke-width:.995633;stroke-linecap:round;stroke-linejoin:bevel;stroke-miterlimit:3.3;stroke-dasharray:none;stroke-opacity:1"/><rect width="27.744" height="16.857" x="227.028" y="149.249" ry="6.82" style="fill:#f60;fill-opacity:1;stroke:#f60;stroke-width:12.336;stroke-linecap:round;stroke-linejoin:bevel;stroke-miterlimit:3.3;stroke-dasharray:none;stroke-opacity:1"/><rect width="30.542" height="19.935" x="207.284" y="176.931" ry="8.065" style="fill:red;fill-opacity:1;stroke:red;stroke-width:14.0751;stroke-linecap:round;stroke-linejoin:bevel;stroke-miterlimit:3.3;stroke-dasharray:none;stroke-opacity:1"/><rect width="26.897" height="19.94" x="189.294" y="150.404" ry="8.067" style="fill:red;fill-opacity:1;stroke:red;stroke-width:13.2105;stroke-linecap:round;stroke-linejoin:bevel;stroke-miterlimit:3.3;stroke-dasharray:none;stroke-opacity:1"/><rect width="27.359" height="18.255" x="304.225" y="148.598" ry="7.386" style="fill:#f60;fill-opacity:1;stroke:#f60;stroke-width:12.7482;stroke-linecap:round;stroke-linejoin:bevel;stroke-miterlimit:3.3;stroke-dasharray:none;stroke-opacity:1"/><rect width="27.293" height="24.134" x="249.152" y="173.795" ry="9.764" style="fill:#f60;fill-opacity:1;stroke:#f60;stroke-width:14.6402;stroke-linecap:round;stroke-linejoin:bevel;stroke-miterlimit:3.3;stroke-dasharray:none;stroke-opacity:1"/><rect width="27.359" height="18.255" x="286.954" y="179.742" ry="7.386" style="fill:red;fill-opacity:1;stroke:red;stroke-width:12.7482;stroke-linecap:round;stroke-linejoin:bevel;stroke-miterlimit:3.3;stroke-dasharray:none;stroke-opacity:1"/><rect width="26.718" height="20.621" x="265.788" y="150.573" ry="8.342" style="fill:red;fill-opacity:1;stroke:red;stroke-width:13.3892;stroke-linecap:round;stroke-linejoin:bevel;stroke-miterlimit:3.3;stroke-dasharray:none;stroke-opacity:1"/><rect width="38.991" height="20.009" x="191.617" y="205.885" ry="8.095" style="fill:red;fill-opacity:1;stroke:red;stroke-width:15.9331;stroke-linecap:round;stroke-linejoin:bevel;stroke-miterlimit:3.3;stroke-dasharray:none;stroke-opacity:1"/><rect width="27.359" height="18.255" x="227.155" y="209.699" ry="7.386" style="fill:#f60;fill-opacity:1;stroke:#f60;stroke-width:12.7482;stroke-linecap:round;stroke-linejoin:bevel;stroke-miterlimit:3.3;stroke-dasharray:none;stroke-opacity:1"/><rect width="27.359" height="18.255" x="263.68" y="208.274" ry="7.386" style="fill:red;fill-opacity:1;stroke:red;stroke-width:12.7482;stroke-linecap:round;stroke-linejoin:bevel;stroke-miterlimit:3.3;stroke-dasharray:none;stroke-opacity:1"/><rect width="27.359" height="18.255" x="300.243" y="210.167" ry="7.386" style="fill:#f60;fill-opacity:1;stroke:#f60;stroke-width:12.7482;stroke-linecap:round;stroke-linejoin:bevel;stroke-miterlimit:3.3;stroke-dasharray:none;stroke-opacity:1"/></g></svg>